<svg width="1200" height="630" viewBox="0 0 1200 630" fill="none" xmlns="http://www.w3.org/2000/svg">
  <!-- Background Gradient -->
  <defs>
    <linearGradient id="backgroundGradient" x1="0%" y1="0%" x2="100%" y2="100%">
      <stop offset="0%" style="stop-color:#f8fafc;stop-opacity:1" />
      <stop offset="100%" style="stop-color:#e2e8f0;stop-opacity:1" />
    </linearGradient>
    <linearGradient id="logoGradient" x1="0%" y1="0%" x2="100%" y2="100%">
      <stop offset="0%" style="stop-color:#3b82f6;stop-opacity:1" />
      <stop offset="100%" style="stop-color:#1d4ed8;stop-opacity:1" />
    </linearGradient>
  </defs>
  
  <!-- Background -->
  <rect width="1200" height="630" fill="url(#backgroundGradient)"/>
  
  <!-- Top Section -->
  <rect x="0" y="0" width="1200" height="120" fill="#ffffff" fill-opacity="0.9"/>
  
  <!-- WAY2B1 Logo Area -->
  <circle cx="100" cy="60" r="30" fill="url(#logoGradient)"/>
  <rect x="85" y="45" width="30" height="30" rx="6" fill="#ffffff"/>
  
  <!-- WAY2B1 Text -->
  <text x="150" y="50" font-family="system-ui, -apple-system, sans-serif" font-size="28" font-weight="700" fill="#1e293b">WAY2B1</text>
  <text x="150" y="75" font-family="system-ui, -apple-system, sans-serif" font-size="16" font-weight="400" fill="#64748b">Task Management & Kanban Board</text>
  
  <!-- Statistics -->
  <rect x="850" y="30" width="300" height="60" rx="8" fill="#f1f5f9"/>
  <text x="870" y="50" font-family="system-ui, -apple-system, sans-serif" font-size="14" font-weight="600" fill="#475569">Active Tasks</text>
  <text x="970" y="50" font-family="system-ui, -apple-system, sans-serif" font-size="24" font-weight="700" fill="#3b82f6">303</text>
  <text x="870" y="75" font-family="system-ui, -apple-system, sans-serif" font-size="14" font-weight="600" fill="#475569">Projects</text>
  <text x="970" y="75" font-family="system-ui, -apple-system, sans-serif" font-size="24" font-weight="700" fill="#10b981">8</text>
  
  <!-- Kanban Board Preview -->
  <!-- Column Headers -->
  <rect x="60" y="160" width="200" height="40" rx="8" fill="#dbeafe"/>
  <text x="80" y="185" font-family="system-ui, -apple-system, sans-serif" font-size="16" font-weight="600" fill="#1e40af">To do (3)</text>
  
  <rect x="280" y="160" width="200" height="40" rx="8" fill="#fef3c7"/>
  <text x="300" y="185" font-family="system-ui, -apple-system, sans-serif" font-size="16" font-weight="600" fill="#d97706">In progress (3)</text>
  
  <rect x="500" y="160" width="200" height="40" rx="8" fill="#fde2e8"/>
  <text x="520" y="185" font-family="system-ui, -apple-system, sans-serif" font-size="16" font-weight="600" fill="#dc2626">Needs work (3)</text>
  
  <rect x="720" y="160" width="200" height="40" rx="8" fill="#dcfce7"/>
  <text x="740" y="185" font-family="system-ui, -apple-system, sans-serif" font-size="16" font-weight="600" fill="#16a34a">Verified (2)</text>
  
  <rect x="940" y="160" width="200" height="40" rx="8" fill="#f0f9ff"/>
  <text x="960" y="185" font-family="system-ui, -apple-system, sans-serif" font-size="16" font-weight="600" fill="#0284c7">Done (2)</text>
  
  <!-- Task Cards Preview -->
  <!-- To do cards -->
  <rect x="70" y="220" width="180" height="70" rx="6" fill="#ffffff" stroke="#e2e8f0" stroke-width="1"/>
  <text x="85" y="240" font-family="system-ui, -apple-system, sans-serif" font-size="11" font-weight="600" fill="#ef4444">FCLT-771</text>
  <text x="85" y="255" font-family="system-ui, -apple-system, sans-serif" font-size="12" fill="#1e293b">Update Calls, Distributions</text>
  <rect x="85" y="265" width="50" height="15" rx="7" fill="#fef2f2"/>
  <text x="90" y="275" font-family="system-ui, -apple-system, sans-serif" font-size="9" fill="#dc2626">Emergency</text>
  
  <!-- In progress cards -->
  <rect x="290" y="220" width="180" height="70" rx="6" fill="#ffffff" stroke="#e2e8f0" stroke-width="1"/>
  <text x="305" y="240" font-family="system-ui, -apple-system, sans-serif" font-size="11" font-weight="600" fill="#3b82f6">INVST-83</text>
  <text x="305" y="255" font-family="system-ui, -apple-system, sans-serif" font-size="12" fill="#1e293b">Family office budget</text>
  <rect x="305" y="265" width="40" height="15" rx="7" fill="#eff6ff"/>
  <text x="310" y="275" font-family="system-ui, -apple-system, sans-serif" font-size="9" fill="#3b82f6">Normal</text>
  
  <!-- Needs work cards -->
  <rect x="510" y="220" width="180" height="70" rx="6" fill="#ffffff" stroke="#e2e8f0" stroke-width="1"/>
  <text x="525" y="240" font-family="system-ui, -apple-system, sans-serif" font-size="11" font-weight="600" fill="#dc2626">RLST-234</text>
  <text x="525" y="255" font-family="system-ui, -apple-system, sans-serif" font-size="12" fill="#1e293b">Aircraft Purchase</text>
  <rect x="525" y="265" width="30" height="15" rx="7" fill="#f3f4f6"/>
  <text x="530" y="275" font-family="system-ui, -apple-system, sans-serif" font-size="9" fill="#6b7280">Low</text>
  
  <!-- Verified cards -->
  <rect x="730" y="220" width="180" height="70" rx="6" fill="#ffffff" stroke="#e2e8f0" stroke-width="1"/>
  <text x="745" y="240" font-family="system-ui, -apple-system, sans-serif" font-size="11" font-weight="600" fill="#16a34a">FIN-892</text>
  <text x="745" y="255" font-family="system-ui, -apple-system, sans-serif" font-size="12" fill="#1e293b">Tax Preparation</text>
  <rect x="745" y="265" width="35" height="15" rx="7" fill="#dcfce7"/>
  <text x="750" y="275" font-family="system-ui, -apple-system, sans-serif" font-size="9" fill="#16a34a">High</text>
  
  <!-- Done cards -->
  <rect x="950" y="220" width="180" height="70" rx="6" fill="#ffffff" stroke="#e2e8f0" stroke-width="1"/>
  <text x="965" y="240" font-family="system-ui, -apple-system, sans-serif" font-size="11" font-weight="600" fill="#059669">PROP-123</text>
  <text x="965" y="255" font-family="system-ui, -apple-system, sans-serif" font-size="12" fill="#1e293b">Due Diligence</text>
  <circle cx="1100" cy="272" r="5" fill="#10b981"/>
  
  <!-- Team Avatars -->
  <circle cx="100" cy="350" r="15" fill="#f59e0b"/>
  <circle cx="130" cy="350" r="15" fill="#3b82f6"/>
  <circle cx="160" cy="350" r="15" fill="#10b981"/>
  <circle cx="190" cy="350" r="15" fill="#8b5cf6"/>
  <text x="220" y="356" font-family="system-ui, -apple-system, sans-serif" font-size="12" fill="#64748b">+25 team members</text>
  
  <!-- Features -->
  <text x="60" y="420" font-family="system-ui, -apple-system, sans-serif" font-size="18" font-weight="600" fill="#1e293b">Key Features</text>
  
  <!-- Feature icons and text -->
  <circle cx="80" cy="450" r="8" fill="#3b82f6"/>
  <text x="100" y="456" font-family="system-ui, -apple-system, sans-serif" font-size="14" fill="#475569">Real-time collaboration</text>
  
  <circle cx="280" cy="450" r="8" fill="#10b981"/>
  <text x="300" y="456" font-family="system-ui, -apple-system, sans-serif" font-size="14" fill="#475569">Task tracking & analytics</text>
  
  <circle cx="480" cy="450" r="8" fill="#f59e0b"/>
  <text x="500" y="456" font-family="system-ui, -apple-system, sans-serif" font-size="14" fill="#475569">Project management</text>
  
  <circle cx="700" cy="450" r="8" fill="#8b5cf6"/>
  <text x="720" y="456" font-family="system-ui, -apple-system, sans-serif" font-size="14" fill="#475569">Team productivity tools</text>
  
  <!-- Bottom branding -->
  <text x="60" y="550" font-family="system-ui, -apple-system, sans-serif" font-size="24" font-weight="700" fill="#1e293b">Professional Task Management</text>
  <text x="60" y="580" font-family="system-ui, -apple-system, sans-serif" font-size="16" fill="#64748b">Streamline your workflow with WAY2B1's powerful Kanban board system</text>
  
  <!-- Decorative elements -->
  <circle cx="1050" cy="500" r="40" fill="#dbeafe" fill-opacity="0.5"/>
  <circle cx="1100" cy="520" r="25" fill="#bfdbfe" fill-opacity="0.7"/>
  <circle cx="1120" cy="480" r="15" fill="#93c5fd" fill-opacity="0.6"/>
</svg> 